<svg width="100" height="25" viewBox="0 0 100 25" fill="none" xmlns="http://www.w3.org/2000/svg">
<path d="M33.4155 2.67285H38.6006L46.5805 16.6864L46.3967 2.67285H50.5766V22.179H45.8205L37.4361 7.42984L37.6322 22.179H33.4278V2.67285H33.4155Z" fill="#005693"/>
<path d="M62.2826 22.179C61.5717 22.179 60.922 22.1667 60.3214 22.1299C59.7207 22.0931 59.1691 22.0073 58.6543 21.8602C58.1394 21.7131 57.6491 21.5169 57.1833 21.2472C56.7175 20.9897 56.2762 20.6219 55.835 20.1438C55.0872 19.3714 54.6092 18.5131 54.4008 17.5936C54.1924 16.6741 54.0698 15.5707 54.0698 14.2833V2.67285H58.1762V13.3761V14.1362C58.1762 14.9454 58.213 15.6442 58.2743 16.2327C58.3356 16.809 58.5317 17.2871 58.8627 17.6672C59.2917 18.1944 59.8188 18.5377 60.4194 18.697C61.0201 18.8564 61.7678 18.9422 62.6381 18.9422H67.4677V22.179H62.2826Z" fill="#005693"/>
<path d="M70.1282 6.0919H63.8276V2.6958H80.6945V6.0919H74.3694V22.1774H70.1282V6.0919Z" fill="#005693"/>
<path d="M91.5917 2.67285C92.9278 2.67285 94.0678 2.74641 95.0116 2.88128C95.9555 3.01614 96.7277 3.27361 97.3161 3.65367C98.1864 4.21765 98.8484 4.95326 99.3142 5.84827C99.78 6.75553 100.001 7.80991 100.001 9.02368C100.001 11.3409 99.2529 13.0328 97.7451 14.0994C96.9116 14.6757 96.0168 15.0312 95.0484 15.1538C94.08 15.2764 92.9768 15.35 91.751 15.35H86.7866V22.1667H82.6802V2.67285H91.5917ZM91.7755 11.9171C94.2149 11.9171 95.4407 10.9608 95.4407 9.03594C95.4407 7.94477 95.1342 7.1969 94.5091 6.78005C93.8839 6.3632 92.891 6.15477 91.5304 6.15477H86.7743V11.9171H91.7755Z" fill="#005693"/>
<path d="M0 2.72217V5.0884V18.8199C0 20.6712 1.50772 22.1792 3.35867 22.1792H16.0579V2.72217H0Z" fill="#62BEE3"/>
<path d="M28.7805 3.35932C28.7805 1.50801 27.2728 0 25.4218 0H12.7227V19.69H23.6445L28.2412 24.2263C28.4373 24.4225 28.7683 24.2754 28.7683 24.0056V19.69V17.0908V3.35932H28.7805Z" fill="#005693"/>
<path d="M16.0445 22.1802L12.7227 19.6914H16.0445V22.1802Z" fill="#005693"/>
<path d="M12.7602 7.01318H3.3584V8.12887H12.7602V7.01318Z" fill="#005693"/>
<path d="M12.7231 9.23279H3.32129V10.3485H12.7231V9.23279Z" fill="#005693"/>
<path d="M12.7231 11.4619H3.32129V12.5776H12.7231V11.4619Z" fill="#005693"/>
<path d="M12.7231 13.6952H3.32129V14.8109H12.7231V13.6952Z" fill="#005693"/>
<path d="M22.1134 5.89746H2.19434V7.01315H22.1134V5.89746Z" fill="#62BEE3"/>
<path d="M22.1134 8.12683H2.19434V9.24252H22.1134V8.12683Z" fill="#62BEE3"/>
<path d="M22.1134 10.3473H2.19434V11.463H22.1134V10.3473Z" fill="#62BEE3"/>
<path d="M22.1134 12.5796H2.19434V13.6953H22.1134V12.5796Z" fill="#62BEE3"/>
</svg>
