<?xml version="1.0" encoding="utf-8"?>
<!-- Generator: Adobe Illustrator 24.1.3, SVG Export Plug-In . SVG Version: 6.00 Build 0)  -->
<svg version="1.1" id="Layer_1" xmlns="http://www.w3.org/2000/svg" xmlns:xlink="http://www.w3.org/1999/xlink" x="0px" y="0px"
	 viewBox="0 0 822.8 208.8" style="enable-background:new 0 0 822.8 208.8;" xml:space="preserve">
<style type="text/css">
	.st0{fill:#20224D;}
	.st1{fill:#62BEE3;}
	.st2{fill:#005693;}
</style>
<g>
	<g>
		<path class="st0" d="M275.9,27h42.3l65.1,114.3L381.8,27h34.1v159.1h-38.8L308.7,65.8l1.6,120.3h-34.3V27z"/>
		<path class="st0" d="M511.4,186.1c-5.8,0-11.1-0.1-16-0.4c-4.9-0.3-9.4-1-13.6-2.2c-4.2-1.2-8.2-2.8-12-5c-3.8-2.1-7.4-5.1-11-9
			c-6.1-6.3-10-13.3-11.7-20.8s-2.7-16.5-2.7-27V27h33.5v87.3v6.2c0,6.6,0.3,12.3,0.8,17.1c0.5,4.7,2.1,8.6,4.8,11.7
			c3.5,4.3,7.8,7.1,12.7,8.4c4.9,1.3,11,2,18.1,2h39.4v26.4H511.4z"/>
		<path class="st0" d="M575.4,54.9H524V27.2h137.6v27.7H610v131.2h-34.6V54.9z"/>
		<path class="st0" d="M750.5,27c10.9,0,20.2,0.6,27.9,1.7c7.7,1.1,14,3.2,18.8,6.3c7.1,4.6,12.5,10.6,16.3,17.9
			c3.8,7.4,5.6,16,5.6,25.9c0,18.9-6.1,32.7-18.4,41.4c-6.8,4.7-14.1,7.6-22,8.6c-7.9,1-16.9,1.6-26.9,1.6h-40.5v55.6h-33.5V27
			H750.5z M752,102.4c19.9,0,29.9-7.8,29.9-23.5c0-8.9-2.5-15-7.6-18.4c-5.1-3.4-13.2-5.1-24.3-5.1h-38.8v47H752z"/>
	</g>
	<path class="st1" d="M3.3,27.4v19.3v112c0,15.1,12.3,27.4,27.4,27.4h103.6V27.4H3.3z"/>
	<g>
		<path class="st2" d="M238.1,32.6c0-15.1-12.3-27.4-27.4-27.4H107.1v160.6h89.1l37.5,37c1.6,1.6,4.3,0.4,4.3-1.8v-35.2v-21.2V32.6z
			"/>
		<polygon class="st0" points="134.2,186.1 107.1,165.8 134.2,165.8 		"/>
	</g>
	<g>
		<rect x="30.7" y="62.4" class="st2" width="76.7" height="9.1"/>
	</g>
	<g>
		<rect x="30.4" y="80.5" class="st2" width="76.7" height="9.1"/>
	</g>
	<g>
		<rect x="30.4" y="98.7" class="st2" width="76.7" height="9.1"/>
	</g>
	<g>
		<rect x="30.4" y="116.9" class="st2" width="76.7" height="9.1"/>
	</g>
	<g>
		<rect x="21.2" y="53.3" class="st1" width="162.5" height="9.1"/>
	</g>
	<g>
		<rect x="21.2" y="71.5" class="st1" width="162.5" height="9.1"/>
	</g>
	<g>
		<rect x="21.2" y="89.6" class="st1" width="162.5" height="9.1"/>
	</g>
	<g>
		<rect x="21.2" y="107.8" class="st1" width="162.5" height="9.1"/>
	</g>
</g>
</svg>
