<svg width="68" height="26" viewBox="0 0 68 26" fill="none" xmlns="http://www.w3.org/2000/svg">
<path d="M0.70697 0.998169H5.89207L13.872 15.0117L13.6881 0.998169H17.868V20.5043H13.112L4.72757 5.75516L4.92369 20.5043H0.719229V0.998169H0.70697Z" fill="#005693"/>
<path d="M29.576 20.5043C28.8651 20.5043 28.2154 20.492 27.6148 20.4552C27.0141 20.4185 26.4625 20.3326 25.9477 20.1855C25.4328 20.0384 24.9425 19.8422 24.4767 19.5725C24.0109 19.315 23.5696 18.9472 23.1284 18.4691C22.3806 17.6967 21.9026 16.8385 21.6942 15.9189C21.4858 14.9994 21.3632 13.896 21.3632 12.6087V0.998169H25.4696V11.7014V12.4615C25.4696 13.2707 25.5064 13.9695 25.5677 14.558C25.629 15.1343 25.8251 15.6124 26.1561 15.9925C26.5851 16.5197 27.1122 16.863 27.7128 17.0224C28.3135 17.1817 29.0612 17.2676 29.9315 17.2676H34.7611V20.5043H29.576Z" fill="#005693"/>
<path d="M37.4216 4.41722H31.121V1.02112H47.9879V4.41722H41.6628V20.5027H37.4216V4.41722Z" fill="#005693"/>
<path d="M58.8841 0.998169C60.2202 0.998169 61.3602 1.07173 62.3041 1.20659C63.2479 1.34146 64.0202 1.59892 64.6085 1.97899C65.4789 2.54296 66.1408 3.27858 66.6066 4.17358C67.0724 5.08084 67.293 6.13523 67.293 7.349C67.293 9.66619 66.5453 11.3581 65.0376 12.4248C64.204 13.001 63.3092 13.3565 62.3408 13.4791C61.3725 13.6017 60.2692 13.6753 59.0434 13.6753H54.079V20.492H49.9726V0.998169H58.8841ZM59.068 10.2424C61.5073 10.2424 62.7331 9.28612 62.7331 7.36126C62.7331 6.27009 62.4266 5.52221 61.8015 5.10536C61.1763 4.68851 60.1834 4.48009 58.8228 4.48009H54.0667V10.2424H59.068Z" fill="#005693"/>
</svg>
